<svg version="1.1" id="Layer_1" xmlns="http://www.w3.org/2000/svg" xmlns:xlink="http://www.w3.org/1999/xlink" x="0px" y="0px"
	 width="100%" viewBox="0 0 1052 1058" enable-background="new 0 0 1052 1058" xml:space="preserve">
<path fill="#8FBB51" opacity="1.000000" stroke="none" 
	d="
M347.745117,915.744934 
	C313.330811,952.879639 279.159210,989.756897 244.987640,1026.634155 
	C244.494843,1026.324829 244.002045,1026.015503 243.509247,1025.706299 
	C325.030701,862.053650 406.552155,698.401001 488.491302,533.909790 
	C429.841492,533.909790 372.015381,533.909790 313.346771,533.909790 
	C314.385040,531.624512 314.967651,530.137573 315.710724,528.735718 
	C381.672638,404.293671 447.646088,279.857758 513.620605,155.422424 
	C533.896545,117.179604 554.217712,78.960625 574.384460,40.660275 
	C576.102356,37.397556 578.143127,36.210342 581.753479,36.213593 
	C666.418579,36.289742 751.083740,36.271450 835.748901,36.280766 
	C836.714478,36.280872 837.680115,36.415585 839.891174,36.580170 
	C751.933472,163.453918 664.455017,289.636475 576.411499,416.633972 
	C654.389038,416.633972 731.406006,416.633972 809.727051,416.633972 
	C807.855286,418.906281 806.830200,420.288116 805.667542,421.542389 
	C748.120544,483.626740 690.550171,545.689392 633.007385,607.777649 
	C565.949951,680.132019 498.912201,752.504517 431.872803,824.875610 
	C403.901886,855.071045 375.948914,885.283020 347.745117,915.744934 
z"/>
<path fill="#9B9B9B" opacity="1.000000" stroke="none" 
	d="
M793.334412,230.339844 
	C798.929871,222.276611 804.321716,214.510391 809.733093,206.716019 
	C938.619812,315.115875 1010.341736,529.965027 911.403870,728.091187 
	C798.822876,953.538208 561.727600,1002.296143 407.455322,957.993042 
	C408.592865,956.578247 409.511444,955.284363 410.580048,954.129211 
	C431.278870,931.755188 452.065338,909.461426 472.631165,886.966003 
	C475.667480,883.644775 478.710236,882.728577 483.053467,882.949280 
	C500.609070,883.841370 518.264221,885.728516 535.737793,884.725464 
	C587.109741,881.776489 635.998535,868.853027 681.619080,844.601807 
	C741.826355,812.596436 788.961914,767.017517 823.062927,707.969238 
	C842.040222,675.108521 855.094910,639.960938 862.381226,602.796936 
	C865.213135,588.352844 866.314880,573.558472 867.943298,558.894592 
	C868.674072,552.314392 869.022644,545.665649 869.094055,539.043213 
	C869.323303,517.793579 867.726746,496.744232 864.277344,475.687195 
	C858.245178,438.863129 846.489319,404.084167 829.351990,371.118683 
	C813.197144,340.043182 792.805908,311.936859 767.882690,287.222992 
	C765.284058,284.646210 762.537170,282.218933 759.406799,279.300629 
	C770.829712,262.817352 781.980286,246.727127 793.334412,230.339844 
z"/>
<path fill="#9B9B9B" opacity="1.000000" stroke="none" 
	d="
M167.092285,523.011841 
	C167.059616,533.839966 166.392975,544.216431 167.133698,554.491394 
	C169.057236,581.173645 173.785995,607.393738 181.445282,633.079834 
	C199.301758,692.963379 230.672409,744.559570 275.987122,787.600098 
	C279.087524,790.544861 279.397461,792.779480 277.490662,796.551697 
	C265.174713,820.916138 253.116730,845.410950 240.960587,869.856262 
	C240.597336,870.586731 240.085205,871.243103 239.635025,871.945740 
	C123.166931,782.048218 44.251804,602.525879 94.554306,418.959137 
	C149.580933,218.152802 323.379211,113.057480 461.545013,99.296219 
	C458.249115,105.656082 455.192047,111.665741 452.037170,117.623650 
	C438.325958,143.517151 424.528473,169.365265 410.925873,195.315628 
	C409.110229,198.779449 406.909271,200.859833 403.115204,202.171570 
	C348.064941,221.204361 300.557495,252.068863 261.068848,294.800995 
	C214.885712,344.777496 185.116501,403.214935 172.846329,470.375427 
	C169.692673,487.637024 167.172348,504.930786 167.092285,523.011841 
z"/>
<path fill="#8FBB51" opacity="1.000000" stroke="none" 
	d="
M243.626221,1027.533936 
	C243.173279,1027.724365 242.909607,1027.665039 242.645935,1027.605713 
	C242.710052,1027.396362 242.774155,1027.187012 242.838226,1026.977661 
	C243.163971,1027.079834 243.489716,1027.181885 243.626221,1027.533936 
z"/>
</svg>