<svg version="1.1" id="Layer_1" xmlns="http://www.w3.org/2000/svg" xmlns:xlink="http://www.w3.org/1999/xlink" x="0px" y="0px"
	 width="100%" viewBox="0 0 3538 1429" enable-background="new 0 0 3538 1429" xml:space="preserve">
<path fill="#83BD3D" opacity="1.000000" stroke="none" 
	d="
M932.000000,614.211182 
	C962.253174,614.211243 991.506348,614.211243 1020.451965,614.211243 
	C1020.899719,615.141113 1021.126587,615.431396 1021.164978,615.744690 
	C1021.201111,616.039917 1021.138062,616.451538 1020.949463,616.655396 
	C802.326538,852.870544 583.689453,1089.072632 365.052460,1325.274780 
	C364.486664,1324.928589 363.920868,1324.582397 363.355042,1324.236206 
	C458.350739,1133.571167 553.346436,942.906250 649.111694,750.696716 
	C580.556641,750.696716 513.798462,750.696716 445.820679,750.696716 
	C447.437195,747.058350 448.335144,744.659851 449.523987,742.415344 
	C548.378601,555.789978 647.255798,369.176575 746.132446,182.562805 
	C746.444336,181.974121 746.856262,181.423416 747.076599,180.803452 
	C749.506775,173.967194 754.069763,171.838821 761.480591,171.882751 
	C817.808411,172.216705 874.139221,172.065613 930.469055,172.065475 
	C969.133362,172.065384 1007.797607,172.065063 1046.461914,172.064835 
	C1049.713989,172.064819 1052.966187,172.064819 1058.353271,172.064819 
	C955.937561,319.827393 854.534607,466.128632 751.897156,614.211060 
	C812.811768,614.211060 871.905884,614.211060 932.000000,614.211182 
z"/>
<path fill="#9C9C9C" opacity="1.000000" stroke="none" 
	d="
M1183.875732,853.720459 
	C1174.000366,899.694092 1159.180786,943.044434 1137.862427,984.075684 
	C1117.018311,1024.193604 1091.473267,1061.006592 1060.970947,1094.452148 
	C1014.311340,1145.614014 959.538513,1185.571411 896.727905,1214.550781 
	C855.096741,1233.758423 811.600891,1246.704590 766.343201,1254.338501 
	C726.310120,1261.090820 686.089172,1261.670776 645.823914,1259.568604 
	C615.909912,1258.006958 586.400024,1252.606689 557.322083,1245.214111 
	C556.749817,1245.068726 556.307434,1244.411865 555.301575,1243.575439 
	C555.855530,1242.635864 556.294128,1241.472046 557.076294,1240.625977 
	C581.952087,1213.714478 606.930481,1186.897095 631.685974,1159.875610 
	C635.161438,1156.081909 638.959717,1156.042358 643.404236,1156.225342 
	C661.687622,1156.978882 679.993896,1158.354248 698.264465,1158.018066 
	C750.166077,1157.063354 799.737183,1145.107788 847.249756,1124.419922 
	C895.484009,1103.418213 937.929993,1074.006836 974.760986,1036.444214 
	C1028.810913,981.320312 1064.378540,916.054810 1081.800293,840.930786 
	C1090.040405,805.398132 1093.546753,769.259216 1091.631104,732.866455 
	C1086.881470,642.630676 1056.545654,561.985535 999.036133,491.967560 
	C990.804443,481.945587 981.576599,472.741150 972.792236,463.174469 
	C970.339722,460.503510 967.824585,457.890045 964.435181,454.291565 
	C983.863708,426.204926 1003.109070,398.383026 1023.229736,369.295685 
	C1091.002686,430.778595 1139.682373,503.674103 1168.255371,589.854980 
	C1196.851685,676.105408 1201.590576,763.838623 1183.875732,853.720459 
z"/>
<path fill="#9C9C9C" opacity="1.000000" stroke="none" 
	d="
M465.372620,289.330322 
	C511.544281,267.249451 567.578491,250.251068 617.477295,245.166824 
	C616.651306,247.493988 616.179077,249.609467 615.202881,251.458908 
	C596.545593,286.804382 577.793762,322.100037 559.176453,357.466492 
	C557.202637,361.216003 554.741333,363.547028 550.571045,364.992218 
	C504.167908,381.073151 461.994080,404.761536 424.085175,436.007416 
	C387.213654,466.398285 356.721313,502.270691 332.363251,543.328735 
	C308.357697,583.792664 291.889374,627.168213 283.165924,673.420288 
	C276.096893,710.900574 274.213348,748.572266 277.506775,786.677002 
	C282.010315,838.782227 296.109772,888.016235 319.601166,934.547913 
	C339.720245,974.399658 365.666046,1010.144043 397.835419,1041.226807 
	C400.690613,1043.985474 404.037476,1046.235352 407.559540,1049.043335 
	C391.282806,1081.656250 375.751678,1112.775269 359.644409,1145.048584 
	C350.117798,1136.656860 341.383179,1129.506348 333.257324,1121.720337 
	C257.059387,1048.709106 207.285416,960.724915 184.518616,857.644653 
	C174.182388,810.845825 171.364059,763.309265 174.501755,715.639526 
	C178.944534,648.142578 196.216858,583.777039 226.646271,523.270203 
	C265.711365,445.591919 320.871887,381.646362 392.228516,331.778412 
	C415.218048,315.712067 439.349335,301.648315 465.372620,289.330322 
z"/>
<path fill="#16797E" opacity="1.000000" stroke="none" 
	d="
M1468.342529,612.199097 
	C1433.212891,616.080383 1398.944946,615.102478 1364.692627,612.858093 
	C1353.472168,612.122742 1342.308105,610.529297 1330.607666,609.273560 
	C1330.607666,499.986206 1330.607666,391.542877 1330.607666,281.937134 
	C1337.444214,280.845276 1344.501953,279.308105 1351.640991,278.644104 
	C1399.789429,274.165894 1447.974365,271.437134 1496.149414,278.157349 
	C1515.001709,280.787140 1533.321411,285.552643 1550.704712,293.552338 
	C1597.579712,315.123810 1625.251953,351.537842 1633.536133,402.265259 
	C1638.694092,433.850128 1637.034180,465.338776 1628.229126,496.247162 
	C1614.433105,544.676147 1584.212036,578.204590 1537.083740,596.346069 
	C1515.195679,604.771606 1492.492676,609.601807 1468.342529,612.199097 
M1420.318115,396.999969 
	C1420.318115,445.852936 1420.318115,494.705902 1420.318115,543.642090 
	C1434.438721,546.847229 1447.733276,545.773010 1460.864014,543.837646 
	C1497.310181,538.465393 1522.713623,519.180847 1534.241211,483.481415 
	C1542.190796,458.862396 1543.083618,433.596893 1537.319946,408.586731 
	C1529.500854,374.657898 1508.064819,353.485748 1473.812012,345.770691 
	C1460.369629,342.742950 1446.774536,342.513123 1433.116577,343.566650 
	C1428.957642,343.887482 1424.812988,344.394592 1420.318237,344.851257 
	C1420.318237,362.421143 1420.318237,378.710541 1420.318115,396.999969 
z"/>
<path fill="#83BE3D" opacity="1.000000" stroke="none" 
	d="
M3105.991455,540.000000 
	C3105.991455,453.446411 3105.991455,367.892822 3105.991455,281.683197 
	C3112.957031,280.570709 3119.108398,279.244629 3125.329834,278.649506 
	C3171.473877,274.235626 3217.684326,271.808441 3263.951416,276.406403 
	C3283.968750,278.395691 3303.158203,283.694305 3320.896973,293.622803 
	C3351.791992,310.914642 3366.674316,344.166565 3357.915039,377.496063 
	C3352.301270,398.857178 3338.033447,413.178894 3319.059814,423.361389 
	C3315.553467,425.243195 3311.986816,427.012329 3308.466553,428.869324 
	C3308.304688,428.954834 3308.328857,429.393555 3308.089355,430.444000 
	C3311.216797,431.695374 3314.526367,432.952423 3317.783203,434.333344 
	C3345.335205,446.015350 3364.312256,465.347839 3369.725098,495.477875 
	C3377.295166,537.615784 3356.469971,571.278320 3325.080566,590.397644 
	C3307.132568,601.329712 3287.195312,606.796448 3266.688721,609.685974 
	C3215.616211,616.882263 3164.446533,616.017822 3113.313965,609.932251 
	C3111.083496,609.666809 3108.919434,608.841064 3105.991455,608.087646 
	C3105.991455,585.532349 3105.991455,563.266174 3105.991455,540.000000 
M3255.102051,475.554749 
	C3236.187500,467.250305 3216.368652,467.992004 3196.052246,468.876282 
	C3196.052246,495.507050 3196.052246,521.323914 3196.052246,548.296814 
	C3208.149414,548.296814 3219.743652,548.782104 3231.270508,548.108215 
	C3237.807373,547.726013 3244.483398,546.129700 3250.659180,543.879944 
	C3265.314209,538.541626 3274.394775,528.147034 3275.969727,512.232056 
	C3277.582275,495.934692 3271.312012,483.677490 3255.102051,475.554749 
M3195.490234,372.998718 
	C3195.490234,383.200714 3195.490234,393.402679 3195.490234,404.177582 
	C3209.610840,404.953247 3222.497559,405.280579 3235.262695,403.011627 
	C3240.442627,402.090973 3245.614258,400.444702 3250.436768,398.325470 
	C3263.768799,392.466980 3270.464600,381.887573 3269.804199,368.685577 
	C3269.158203,355.772552 3261.166748,346.278168 3246.808350,341.897675 
	C3230.185791,336.826477 3213.423828,338.571808 3195.489746,340.959808 
	C3195.489746,351.242584 3195.489746,361.123444 3195.490234,372.998718 
z"/>
<path fill="#83BE3D" opacity="1.000000" stroke="none" 
	d="
M2814.728027,292.616669 
	C2857.749756,271.695282 2901.879883,268.724548 2946.782471,281.076630 
	C2993.456299,293.915894 3026.384521,323.563568 3044.278320,368.495972 
	C3064.837158,420.119995 3063.507080,472.211121 3042.167725,523.252502 
	C3024.388672,565.779358 2992.129395,593.222717 2948.109375,606.443542 
	C2913.563477,616.818970 2878.385986,617.906860 2843.490234,608.955627 
	C2795.856201,596.736633 2761.927002,567.383606 2743.085693,522.019897 
	C2722.322998,472.030975 2722.550293,421.298035 2742.912598,371.200012 
	C2756.950195,336.662872 2780.894775,310.443634 2814.728027,292.616669 
M2853.446045,529.624756 
	C2870.908691,544.520447 2891.011963,547.827209 2912.469482,541.583801 
	C2932.122803,535.865173 2944.038818,521.200317 2951.915771,503.087006 
	C2963.719971,475.941681 2964.397217,447.435059 2960.893799,418.679993 
	C2958.901611,402.331055 2953.613525,386.927826 2944.436279,373.025452 
	C2919.835938,335.758636 2870.402588,334.150604 2844.478516,370.378815 
	C2838.204102,379.146576 2833.355957,389.458435 2830.112061,399.771088 
	C2821.110107,428.389191 2821.416260,457.576508 2828.667969,486.552216 
	C2832.687012,502.610870 2840.117432,517.086914 2853.446045,529.624756 
z"/>
<path fill="#83BE3E" opacity="1.000000" stroke="none" 
	d="
M2438.500000,485.999939 
	C2438.500244,417.729492 2438.500244,350.459015 2438.500244,281.979614 
	C2446.664795,280.747131 2454.389893,279.228485 2462.188477,278.464874 
	C2495.690674,275.184418 2529.274658,273.187042 2562.944824,274.299316 
	C2587.285400,275.103363 2611.454834,277.512970 2634.541748,286.131012 
	C2687.119629,305.757629 2710.181641,365.715240 2683.686279,414.164551 
	C2674.829590,430.359985 2661.963623,442.676758 2645.858887,451.638763 
	C2643.541260,452.928558 2641.197754,454.172546 2638.891113,455.482056 
	C2638.656738,455.615265 2638.596924,456.056335 2638.453613,456.355469 
	C2638.698486,456.891479 2638.797363,457.691284 2639.213379,457.923553 
	C2660.880371,470.024200 2671.331299,490.240967 2677.945801,512.765076 
	C2685.067871,537.018616 2691.199463,561.562012 2697.862305,585.951904 
	C2700.307617,594.902466 2703.036621,603.775513 2705.635010,612.679749 
	C2698.610596,614.799072 2630.592285,615.482483 2614.315918,613.508423 
	C2611.659912,606.255432 2608.309082,598.657654 2606.091064,590.742432 
	C2600.528076,570.888306 2595.622070,550.850769 2590.145752,530.971313 
	C2588.122070,523.624817 2585.676514,516.325806 2582.653076,509.338409 
	C2577.140625,496.599823 2566.864014,489.709076 2553.240479,488.467560 
	C2545.363525,487.749725 2537.367676,488.337219 2528.312500,488.337219 
	C2528.312500,530.095337 2528.312500,571.541260 2528.312500,613.698425 
	C2498.086914,613.698425 2468.969482,613.698425 2438.499756,613.698425 
	C2438.499756,571.400208 2438.499756,529.200073 2438.500000,485.999939 
M2590.452637,350.292664 
	C2570.931396,337.645386 2549.821045,341.898682 2528.195312,343.370117 
	C2527.880371,370.216248 2527.983154,395.922394 2528.065918,421.972626 
	C2540.126465,421.972626 2550.755615,422.435028 2561.316650,421.790192 
	C2567.171143,421.432739 2573.171631,419.887726 2578.660889,417.739380 
	C2607.339355,406.515381 2613.816650,372.731689 2590.452637,350.292664 
z"/>
<path fill="#83BD3D" opacity="1.000000" stroke="none" 
	d="
M2380.839355,595.935669 
	C2324.266357,613.759277 2267.421387,619.985779 2209.534668,609.728210 
	C2164.745850,601.791748 2127.283203,581.394775 2102.420166,541.701599 
	C2087.426758,517.765015 2079.610352,491.488983 2077.962402,463.404297 
	C2076.346680,435.872162 2078.910400,408.812592 2088.870361,382.833038 
	C2106.285889,337.405273 2139.081055,307.521301 2183.738037,290.010559 
	C2221.066650,275.373230 2259.996338,272.074768 2299.638672,274.990906 
	C2317.922607,276.335876 2336.055176,278.847229 2353.696289,284.063873 
	C2359.087646,285.658081 2364.346680,287.699860 2370.701172,289.893982 
	C2366.078857,314.486725 2359.021973,337.851868 2353.484131,361.044189 
	C2339.471680,357.551971 2326.448730,353.363556 2313.097412,351.180237 
	C2287.322754,346.965240 2261.393066,345.656616 2235.882080,353.357697 
	C2199.622314,364.303558 2179.194824,388.738281 2173.660645,426.146301 
	C2170.822754,445.328247 2172.199951,464.080200 2178.295410,482.346985 
	C2189.532227,516.020508 2216.941895,538.109497 2254.879395,541.839294 
	C2268.055420,543.134766 2281.469238,543.553406 2295.161377,539.791931 
	C2295.161377,521.101257 2295.161377,502.608002 2295.161377,482.810730 
	C2280.766113,481.839722 2266.212646,482.877380 2251.150391,482.188416 
	C2251.150391,459.340942 2251.150391,437.146454 2251.150391,414.916656 
	C2257.573486,412.519196 2367.091553,411.667847 2381.655518,414.017639 
	C2381.863525,416.123749 2382.276367,418.361877 2382.277832,420.600281 
	C2382.312744,476.585693 2382.312744,532.571167 2382.271240,588.556580 
	C2382.269531,590.851929 2381.802490,593.146912 2380.839355,595.935669 
z"/>
<path fill="#9D9D9D" opacity="1.000000" stroke="none" 
	d="
M2907.675781,785.974670 
	C2871.258057,779.409851 2836.477783,781.215698 2803.484375,797.168823 
	C2769.464600,813.618347 2747.468262,840.466736 2737.697266,876.981018 
	C2727.528076,914.984009 2729.826416,952.269592 2746.649902,988.007751 
	C2764.767822,1026.495117 2796.246094,1048.156494 2837.362549,1055.761353 
	C2863.794434,1060.650146 2890.315918,1059.708374 2916.497070,1052.536621 
	C2957.607910,1041.274902 2980.870361,1011.065918 2986.028320,970.381287 
	C2987.233643,960.872131 2987.589844,951.255310 2988.450439,940.235596 
	C2974.238037,939.271057 2961.056396,939.864441 2947.915283,939.759827 
	C2934.588379,939.653748 2921.259766,939.736389 2907.931885,939.736389 
	C2894.620850,939.736389 2881.310059,939.736389 2866.752930,939.736389 
	C2865.471436,928.866821 2866.414795,918.419006 2866.123291,908.200317 
	C2873.919189,906.107788 3006.709229,905.494080 3020.260986,907.277649 
	C3022.269775,914.192688 3023.018311,1066.834839 3021.045898,1083.126953 
	C3012.065918,1085.044312 3002.875977,1083.815918 2993.001709,1083.916504 
	C2987.739746,1070.112305 2991.842529,1055.317505 2987.675781,1040.974365 
	C2986.592773,1041.662476 2985.387451,1042.050659 2984.766357,1042.877563 
	C2965.984131,1067.885010 2940.457764,1082.001099 2910.206055,1087.220703 
	C2871.295654,1093.934448 2832.617676,1092.931641 2795.239502,1078.581543 
	C2740.819824,1057.688721 2709.552734,1017.261658 2698.302979,960.894165 
	C2692.301758,930.824402 2692.825195,900.689453 2701.365967,870.981201 
	C2718.233887,812.308105 2756.707031,775.073303 2814.811523,758.072815 
	C2854.785645,746.376892 2895.220215,747.283447 2935.015869,758.623230 
	C2978.161133,770.917542 3008.493896,797.840027 3022.701416,841.315918 
	C3023.395996,843.441101 3023.667725,845.704346 3024.427246,849.268066 
	C3012.863037,850.154358 3002.012695,849.936340 2991.236572,849.349060 
	C2989.249268,849.240784 2986.845703,845.830017 2985.671875,843.435120 
	C2974.351074,820.331848 2957.138428,803.421448 2933.254150,793.765076 
	C2925.279541,790.541016 2916.784180,788.604797 2907.675781,785.974670 
z"/>
<path fill="#9C9C9C" opacity="1.000000" stroke="none" 
	d="
M1917.797363,1029.148682 
	C1914.167603,936.099243 1917.209106,843.883057 1915.903198,750.923523 
	C1927.418213,750.923523 1937.902222,750.923523 1948.567261,750.923523 
	C1948.652710,750.997742 1948.926636,751.195923 1949.149536,751.440491 
	C1949.363037,751.674866 1949.684570,751.957092 1949.685059,752.218750 
	C1949.884521,862.487000 1950.063721,972.755249 1950.216675,1083.023560 
	C1950.219971,1085.322510 1949.917725,1087.621948 1949.661621,1091.307495 
	C1937.946533,1091.307495 1926.387451,1091.603394 1914.868042,1091.059692 
	C1912.541870,1090.949951 1909.907471,1088.013428 1908.189941,1085.783569 
	C1884.823730,1055.447021 1861.402100,1025.149902 1838.371948,994.558655 
	C1795.116211,937.101746 1752.093750,879.469238 1709.009155,821.883545 
	C1703.287964,814.236633 1697.771973,806.436096 1690.900146,796.969604 
	C1690.900146,895.878784 1690.900146,992.511414 1690.900146,1089.230103 
	C1684.657593,1091.899292 1670.951660,1092.406372 1658.441284,1090.206909 
	C1658.441284,977.533691 1658.441284,864.738098 1658.441284,750.504028 
	C1663.801147,750.394653 1669.292725,750.157959 1674.782104,750.201233 
	C1682.093384,750.258972 1690.448486,748.397217 1696.418823,751.318115 
	C1702.373657,754.231445 1706.074585,761.926270 1710.528564,767.706116 
	C1761.949219,834.431763 1813.425415,901.115173 1864.653442,967.988464 
	C1880.647461,988.867188 1895.929077,1010.291321 1911.569824,1031.441406 
	C1913.039307,1033.428589 1914.746338,1035.239746 1917.818848,1038.882202 
	C1917.818848,1034.367310 1917.818848,1032.184448 1917.797363,1029.148682 
z"/>
<path fill="#9C9C9C" opacity="1.000000" stroke="none" 
	d="
M2450.000000,750.174316 
	C2477.328857,750.213135 2503.672607,749.717651 2529.981934,750.456421 
	C2551.749512,751.067627 2572.972412,755.082642 2592.354736,765.966492 
	C2616.339600,779.434814 2630.164062,799.652710 2634.263184,826.945190 
	C2636.643311,842.792175 2635.253906,858.085266 2630.613281,873.255188 
	C2624.285400,893.940979 2610.643799,908.203857 2591.605713,917.731506 
	C2589.288330,918.891235 2586.923828,919.957092 2583.739746,921.464844 
	C2585.217041,922.778442 2585.982666,923.797974 2587.002930,924.316650 
	C2608.311279,935.149231 2619.551758,953.308228 2623.737793,976.077759 
	C2625.470703,985.504272 2625.822021,995.239624 2626.158936,1004.856995 
	C2626.951416,1027.480835 2627.244141,1050.122070 2628.000244,1072.747559 
	C2628.186035,1078.318115 2629.371338,1083.855225 2630.185303,1090.083984 
	C2622.454102,1092.593628 2614.833496,1091.212524 2607.396973,1091.346558 
	C2594.181641,1091.585083 2593.178711,1091.109741 2592.371338,1077.646973 
	C2591.437744,1062.083374 2591.556641,1046.443237 2591.606689,1030.837524 
	C2591.662354,1013.509766 2591.763184,996.181946 2587.974609,979.169983 
	C2583.817871,960.505737 2572.113770,948.719177 2553.713623,943.978027 
	C2546.028320,941.997742 2538.053955,940.144165 2530.186035,940.033936 
	C2491.866211,939.496826 2453.538086,939.557800 2415.212891,939.458923 
	C2413.292725,939.453979 2411.371582,939.933289 2408.378418,940.328918 
	C2408.378418,990.428711 2408.378418,1040.253540 2408.378418,1090.740723 
	C2396.450684,1090.740723 2385.656250,1090.740723 2374.243164,1090.740723 
	C2374.243164,977.359985 2374.243164,864.530823 2374.243164,750.358398 
	C2399.266602,749.966614 2424.137451,750.270203 2450.000000,750.174316 
M2582.001221,887.066772 
	C2595.108398,875.592285 2599.057861,860.097290 2599.178711,843.822693 
	C2599.346680,821.194153 2590.787842,803.045715 2568.819336,793.169983 
	C2555.528076,787.195068 2541.535889,784.316284 2527.164551,784.159729 
	C2490.176514,783.756897 2453.182129,783.898071 2416.190430,783.896545 
	C2413.694580,783.896423 2411.198730,784.517944 2408.904053,784.823486 
	C2407.012939,805.079102 2407.815674,898.022461 2410.063477,905.842102 
	C2413.139404,905.842102 2416.429688,905.842102 2419.719727,905.842102 
	C2444.714600,905.842102 2469.712158,906.050110 2494.703613,905.762817 
	C2509.331787,905.594727 2523.997559,905.167847 2538.561279,903.888733 
	C2553.996338,902.533020 2568.616211,898.138550 2582.001221,887.066772 
z"/>
<path fill="#9D9D9D" opacity="1.000000" stroke="none" 
	d="
M1583.995483,1090.533447 
	C1580.244141,1091.085327 1577.260132,1091.406982 1574.276123,1091.408081 
	C1496.963013,1091.436035 1419.649780,1091.437378 1342.336670,1091.409790 
	C1338.740845,1091.408447 1335.145020,1091.097778 1331.827515,1090.944214 
	C1329.612915,1082.949951 1328.733643,769.972412 1330.654419,751.831116 
	C1337.620972,749.762390 1561.765259,748.870789 1581.221558,750.973389 
	C1582.057495,761.233704 1581.561401,771.695374 1581.519653,783.659180 
	C1556.992188,783.812439 1533.145142,783.710876 1509.301514,783.729492 
	C1485.640991,783.747986 1461.980591,783.733521 1438.320068,783.733521 
	C1414.434570,783.733521 1390.549072,783.733521 1366.083252,783.733521 
	C1366.083252,820.872192 1366.083252,856.722412 1366.083252,894.012695 
	C1377.338989,894.110229 1388.518677,894.245422 1399.698608,894.293274 
	C1411.028809,894.341797 1422.359375,894.303955 1433.689697,894.303955 
	C1445.020142,894.303955 1456.350464,894.303955 1467.680908,894.303955 
	C1478.677979,894.303955 1489.675171,894.303955 1500.672241,894.303955 
	C1512.002563,894.303955 1523.333008,894.303955 1534.663330,894.303955 
	C1545.951416,894.303955 1557.239502,894.303955 1569.840088,894.303955 
	C1570.852905,905.379333 1570.264282,915.827148 1570.235718,927.648987 
	C1556.130859,927.722778 1542.599487,927.820862 1529.067871,927.856689 
	C1515.738159,927.892029 1502.408081,927.864441 1489.078247,927.864441 
	C1475.415161,927.864441 1461.752075,927.864441 1448.088989,927.864441 
	C1434.759155,927.864441 1421.429199,927.864441 1408.099365,927.864441 
	C1394.480469,927.864441 1380.861572,927.864380 1367.495728,927.864380 
	C1365.052979,935.625366 1364.561035,1045.898804 1366.928711,1057.959473 
	C1441.448242,1057.959473 1516.227661,1057.959473 1592.454346,1057.959473 
	C1589.653076,1069.684448 1587.208008,1079.919067 1583.995483,1090.533447 
z"/>
<path fill="#9D9D9D" opacity="1.000000" stroke="none" 
	d="
M2254.000000,1091.429688 
	C2184.465820,1091.429077 2115.931641,1091.429077 2046.700928,1091.429077 
	C2046.700928,977.238403 2046.700928,864.476074 2046.700928,751.734009 
	C2053.771973,749.825378 2281.254395,749.113403 2297.343506,751.089111 
	C2297.891357,761.337402 2297.720947,771.784546 2297.372559,783.328979 
	C2225.609375,783.328979 2154.485107,783.328979 2083.736572,783.328979 
	C2081.073975,791.121033 2080.205811,876.148560 2082.427246,893.930786 
	C2095.692139,894.737000 2109.236084,894.180542 2122.746582,894.282104 
	C2136.072998,894.382263 2149.400635,894.303955 2162.727783,894.303955 
	C2176.388184,894.303955 2190.048340,894.303955 2203.708740,894.303955 
	C2217.035889,894.303955 2230.362793,894.303955 2243.689941,894.303955 
	C2257.308105,894.303955 2270.926270,894.303955 2285.852051,894.303955 
	C2286.843994,905.388611 2286.269531,915.833679 2286.234619,927.648621 
	C2272.127197,927.722534 2258.598389,927.820740 2245.069336,927.856689 
	C2231.742188,927.892090 2218.415039,927.864441 2205.087891,927.864441 
	C2191.427490,927.864441 2177.767334,927.864441 2164.106934,927.864441 
	C2150.779785,927.864441 2137.452881,927.864441 2124.125732,927.864441 
	C2110.507080,927.864441 2096.888428,927.864380 2083.519531,927.864380 
	C2081.066162,935.503052 2080.513184,1045.392334 2082.870361,1057.913818 
	C2157.381104,1057.913818 2232.140625,1057.913818 2307.708496,1057.913818 
	C2305.588623,1069.629517 2303.714111,1079.989380 2301.643799,1091.430298 
	C2285.521484,1091.430298 2270.260742,1091.430298 2254.000000,1091.429688 
z"/>
<path fill="#17797E" opacity="1.000000" stroke="none" 
	d="
M1772.573730,591.979492 
	C1772.573853,599.876221 1772.573853,606.775085 1772.573853,614.079224 
	C1742.035278,614.079224 1712.599487,614.079224 1681.774902,614.079224 
	C1681.774902,531.384216 1681.774902,449.254761 1681.774902,366.828369 
	C1687.629028,365.093048 1739.283813,364.397400 1757.108276,366.216034 
	C1757.732178,373.164246 1758.400146,380.325195 1759.011475,387.490936 
	C1759.617432,394.594391 1760.166626,401.702728 1761.512939,409.244507 
	C1777.828003,372.739960 1804.495728,355.285492 1845.336914,360.987518 
	C1845.336914,389.740906 1845.336914,417.825836 1845.336914,446.646851 
	C1840.475220,446.067627 1835.913330,445.563843 1831.362671,444.973999 
	C1820.938721,443.622833 1810.674438,444.705078 1800.809814,448.014465 
	C1784.537598,453.473419 1774.367554,464.229004 1773.267578,482.107635 
	C1772.981812,486.754974 1772.613525,491.408508 1772.604980,496.059784 
	C1772.546387,527.700256 1772.573975,559.340942 1772.573730,591.979492 
z"/>
<path fill="#9D9D9D" opacity="1.000000" stroke="none" 
	d="
M3309.802734,837.822144 
	C3283.628418,874.840759 3257.885010,911.288879 3231.964111,947.610107 
	C3228.657715,952.242798 3227.694824,957.011597 3227.715088,962.535706 
	C3227.856445,1001.187927 3227.789551,1039.840942 3227.789307,1078.493652 
	C3227.789307,1082.123047 3227.789307,1085.752319 3227.789307,1090.679077 
	C3216.035645,1091.974121 3204.973877,1091.550171 3192.818359,1090.915527 
	C3192.593506,1086.784302 3192.239502,1083.267334 3192.235840,1079.750244 
	C3192.195801,1041.097534 3192.141113,1002.444641 3192.281006,963.792419 
	C3192.303467,957.598083 3191.027588,952.475586 3187.239990,947.185425 
	C3141.879883,883.828613 3096.813477,820.261414 3051.683838,756.739685 
	C3050.580811,755.187073 3049.632080,753.524658 3047.578125,750.282593 
	C3061.822266,750.282593 3074.619141,749.939392 3087.365967,750.582825 
	C3089.805908,750.705994 3092.495605,754.398682 3094.318359,756.976257 
	C3132.574707,811.077881 3170.720459,865.257935 3208.919678,919.400146 
	C3209.437012,920.133362 3210.364746,920.576904 3211.468506,921.444458 
	C3212.725098,919.692078 3213.886475,918.117615 3215.001221,916.510925 
	C3251.826904,863.431091 3288.732422,810.406189 3325.339844,757.176086 
	C3329.030762,751.809326 3332.932129,749.727173 3339.293701,750.036682 
	C3349.163086,750.516907 3359.072510,750.163513 3371.305420,750.163513 
	C3350.620605,780.680908 3330.003906,808.676575 3309.802734,837.822144 
z"/>
<path fill="#17797E" opacity="1.000000" stroke="none" 
	d="
M1889.398193,614.278931 
	C1863.130493,611.488281 1846.386719,590.801208 1845.804932,568.036377 
	C1845.579834,559.232117 1846.209717,549.869873 1849.003052,541.626831 
	C1856.809448,518.589783 1879.999756,506.398560 1906.003296,510.268585 
	C1929.377319,513.747253 1946.173096,532.260498 1947.798462,556.771362 
	C1948.169434,562.367371 1948.136719,568.159485 1947.130005,573.648560 
	C1942.681763,597.901001 1925.851318,612.689636 1901.157471,614.457703 
	C1897.532959,614.717224 1893.867188,614.401978 1889.398193,614.278931 
z"/>
</svg>